# xmcd CD database file
#
# Track frame offsets:
#	150
#	24128
#	43638
#	62625
#	80040
#	106334
#	131238
#	150991
#	168107
#	181951
#	193735
#	219189
#	240773
#	262537
#	284902
#	304337
#
# Disc length: 4374 seconds
#
# Revision: 0
# Processed by: cddbd v1.5.2PL0 Copyright (c) Steve Scherf et al.
# Submitted via: CDex 1.51
#
DISCID=cd111410
DTITLE=Various Artist - Best New Age [CD2)
DYEAR=2007
DGENRE=New Age
TTITLE0=Breeze From Saintes Maries
TTITLE1=Acoustic Garden
TTITLE2=She's Riding Again
TTITLE3=Leaving Home
TTITLE4=Sonho (Dream)
TTITLE5=Passage Of Time
TTITLE6=In The Court Of The Mermaid
TTITLE7=Mario Takes A Walk
TTITLE8=Big Buck
TTITLE9=Fingerdance
TTITLE10=Shenandoah
TTITLE11=After Dawn
TTITLE12=Tomorrow's Child
TTITLE13=Rivertown
TTITLE14=The Last Romantic
TTITLE15=Summers End
EXTD=YEAR: 2007
EXTT0=
EXTT1=
EXTT2=
EXTT3=
EXTT4=
EXTT5=
EXTT6=
EXTT7=
EXTT8=
EXTT9=
EXTT10=
EXTT11=
EXTT12=
EXTT13=
EXTT14=
EXTT15=
PLAYORDER=
